<?xml version="1.0" encoding="UTF-8"?>
<svg xmlns="http://www.w3.org/2000/svg" xmlns:xlink="http://www.w3.org/1999/xlink" width="500pt" height="500pt" viewBox="0 0 500 500" version="1.1">
<g id="surface7830381">
<path style=" stroke:none;fill-rule:nonzero;fill:rgb(17.647059%,41.960785%,58.823532%);fill-opacity:1;" d="M 351.992188 21.015625 C 336.992188 21.015625 323.984375 23.984375 311.992188 26.992188 C 333.007812 35.976562 346.015625 46.992188 353.007812 51.992188 C 369.023438 65.976562 378.007812 80 394.023438 103.007812 C 396.992188 108.007812 401.992188 115 405 125.976562 C 408.007812 135.976562 408.007812 143.984375 408.007812 151.992188 C 408.007812 163.007812 406.992188 171.992188 405.976562 180.976562 C 405 188.007812 405 191.015625 404.023438 193.007812 C 404.023438 194.023438 404.023438 195 403.007812 196.992188 C 403.007812 201.992188 403.007812 204.023438 404.023438 208.007812 C 404.023438 211.992188 405 216.015625 405 223.007812 C 406.015625 236.015625 406.015625 245 404.023438 255.976562 L 404.023438 260 C 401.992188 268.984375 400 278.007812 395 285.976562 C 396.015625 288.007812 396.992188 288.984375 398.007812 290.976562 C 403.007812 283.984375 406.992188 276.992188 410.976562 269.023438 C 423.007812 246.992188 430 228.007812 435 214.023438 C 443.984375 188.007812 448.984375 168.984375 451.992188 155 C 458.984375 125 460 111.015625 456.992188 95 C 456.992188 90 455 80.976562 450 71.992188 C 438.984375 51.992188 421.992188 43.007812 410 36.992188 C 401.992188 33.007812 380.976562 21.992188 351.992188 21.015625 Z M 135.351562 25.429688 C 123.828125 25.195312 109.765625 26.484375 93.984375 33.984375 C 88.984375 36.015625 73.984375 43.007812 61.992188 58.984375 C 53.984375 68.984375 48.007812 83.984375 45 100.976562 C 41.992188 115.976562 40.976562 134.023438 46.992188 168.007812 C 50.976562 191.992188 55 208.007812 63.007812 240.976562 C 64.023438 245 70 263.007812 83.007812 303.007812 L 83.984375 305 C 86.015625 311.992188 91.992188 326.992188 105 341.992188 C 113.984375 351.992188 121.992188 358.007812 129.023438 358.007812 L 130.976562 358.007812 C 143.984375 358.007812 153.007812 348.007812 160.976562 340 C 160.976562 338.984375 180 316.015625 186.992188 308.007812 C 185.976562 306.992188 184.023438 306.992188 183.007812 305.976562 C 171.015625 298.984375 161.992188 288.007812 155 275.976562 C 143.007812 253.984375 143.984375 231.992188 145.976562 220.976562 L 146.992188 204.023438 C 143.007812 176.992188 144.023438 151.015625 149.023438 125 C 153.007812 103.007812 158.007812 81.015625 175.976562 58.007812 C 181.992188 50 188.984375 43.007812 195.976562 38.007812 C 180 31.015625 163.007812 26.992188 145.976562 26.015625 C 142.734375 25.742188 139.179688 25.507812 135.351562 25.429688 Z M 260.976562 33.984375 C 255.976562 33.984375 250.976562 33.984375 245.976562 35 C 225.976562 38.984375 206.992188 50 191.992188 68.984375 C 176.992188 88.007812 173.007812 105.976562 169.023438 126.992188 C 166.992188 135 166.992188 141.992188 165.976562 150 C 171.992188 145 180 138.984375 191.992188 135.976562 C 198.984375 133.984375 216.992188 128.007812 231.992188 136.992188 C 236.992188 140 243.984375 146.015625 250.976562 163.007812 C 265.976562 205 251.015625 248.007812 249.023438 251.992188 C 248.007812 255.976562 246.015625 258.984375 245 260.976562 C 243.007812 265.976562 241.015625 270 239.023438 278.007812 C 238.007812 285 236.992188 291.015625 236.992188 298.007812 C 240 298.007812 243.007812 298.984375 245.976562 300.976562 C 250.976562 305.976562 251.992188 313.007812 253.007812 315.976562 C 255 331.992188 255 351.992188 255 371.992188 C 255 388.007812 255 403.007812 255.976562 413.007812 C 258.007812 436.015625 265 451.992188 275 460 C 281.992188 466.015625 290.976562 465.976562 295.976562 466.992188 L 298.007812 466.992188 C 313.007812 466.992188 336.992188 456.992188 345.976562 443.007812 C 350.976562 435 353.007812 428.007812 355 418.007812 C 356.015625 411.992188 355.976562 409.023438 356.992188 403.007812 C 356.992188 400 358.007812 395 358.007812 389.023438 C 358.007812 384.023438 358.984375 378.007812 360 370.976562 C 361.015625 353.984375 363.984375 334.023438 365 323.007812 C 366.015625 310 371.992188 298.984375 376.992188 291.992188 C 370 290.976562 363.007812 285 359.023438 275 C 353.007812 263.984375 351.992188 260.976562 350.976562 255.976562 C 350 251.992188 348.007812 246.992188 340.976562 231.992188 C 325.976562 198.007812 324.023438 188.007812 324.023438 180 C 323.007812 168.984375 321.992188 154.023438 334.023438 144.023438 C 351.992188 128.007812 375 129.023438 386.992188 133.007812 L 386.992188 130.976562 C 385 123.007812 381.015625 116.992188 378.007812 113.007812 C 363.007812 90 355 78.007812 340.976562 66.015625 C 335 61.015625 320 48.984375 298.007812 41.015625 C 288.007812 38.007812 275.976562 33.984375 260.976562 33.984375 Z M 371.523438 151.25 C 364.257812 150.742188 355 151.992188 346.992188 159.023438 C 343.007812 163.007812 343.007812 171.015625 344.023438 178.007812 C 344.023438 183.007812 345 190 360 224.023438 C 366.992188 240 368.984375 245 370 249.023438 C 371.015625 253.007812 371.992188 255 378.007812 265.976562 C 379.023438 268.007812 380 270 381.992188 271.992188 C 383.984375 268.984375 385 263.984375 385.976562 255.976562 L 386.992188 253.007812 C 388.984375 244.023438 388.007812 236.992188 388.007812 225 C 388.007812 218.984375 386.992188 215 386.992188 211.992188 C 385.976562 206.992188 385.976562 203.007812 385.976562 196.992188 C 383.984375 193.984375 383.984375 193.007812 385 190.976562 C 385 188.984375 385.976562 186.015625 386.992188 180 C 388.007812 171.992188 389.023438 165 389.023438 156.992188 C 386.992188 155.976562 386.015625 155 384.023438 154.023438 C 384.023438 154.023438 378.75 151.757812 371.523438 151.25 Z M 215.15625 155.195312 C 208.789062 154.453125 201.484375 156.523438 196.992188 158.007812 C 185.976562 161.015625 179.023438 168.007812 174.023438 171.992188 C 171.015625 175 168.007812 178.007812 165 181.992188 C 165 188.984375 165.976562 196.015625 166.992188 203.007812 L 166.992188 204.023438 L 165 224.023438 C 163.007812 233.007812 161.992188 250 171.992188 266.992188 C 176.992188 276.992188 184.023438 285 193.007812 290 C 199.023438 293.984375 206.992188 296.992188 215.976562 299.023438 C 215.976562 291.992188 216.992188 283.984375 218.007812 276.992188 C 220 266.992188 221.992188 261.992188 225 255.976562 C 226.015625 253.007812 226.992188 251.015625 229.023438 248.007812 C 230 245 243.984375 206.992188 230.976562 171.992188 C 228.007812 163.984375 225 158.984375 220.976562 156.992188 C 219.257812 155.976562 217.226562 155.429688 215.15625 155.195312 Z M 361.875 160.898438 C 364.492188 160.742188 366.992188 160.976562 368.007812 161.992188 C 371.015625 163.984375 366.992188 168.984375 365.976562 170 C 365 171.015625 363.007812 173.007812 360 174.023438 C 356.015625 175 353.007812 171.992188 351.992188 171.992188 C 350.976562 170.976562 348.007812 168.007812 349.023438 165 C 350 163.007812 351.015625 163.007812 355 161.992188 C 356.484375 161.484375 359.257812 161.015625 361.875 160.898438 Z M 211.5625 169.179688 C 214.921875 168.945312 217.734375 170.234375 220 170.976562 C 223.007812 171.992188 225.976562 173.007812 225.976562 175 C 226.992188 178.007812 224.023438 180 223.007812 180.976562 C 220 183.984375 215 184.023438 215 184.023438 C 210 184.023438 206.992188 181.015625 205 178.007812 C 203.984375 176.992188 203.007812 175 204.023438 173.007812 C 205 171.015625 206.992188 170 208.007812 170 C 209.257812 169.492188 210.429688 169.257812 211.5625 169.179688 Z M 395 300 C 390 306.992188 383.007812 316.015625 381.992188 328.007812 C 381.992188 330 381.992188 331.015625 380.976562 333.007812 C 388.984375 335 396.015625 335 403.007812 334.023438 C 419.023438 331.992188 430 323.984375 431.992188 321.992188 C 438.984375 316.992188 448.007812 306.992188 445.976562 303.007812 C 445 301.015625 441.992188 301.992188 425.976562 303.007812 C 421.992188 303.007812 410 306.015625 401.992188 304.023438 L 400 304.023438 C 398.007812 303.007812 396.015625 301.992188 395 300 Z M 220.976562 320 C 218.984375 323.007812 216.015625 325 214.023438 326.992188 C 206.015625 331.992188 195.976562 336.015625 185.976562 338.007812 C 176.992188 341.015625 171.992188 341.015625 171.992188 344.023438 C 170.976562 348.007812 180.976562 353.007812 185.976562 355 C 203.007812 361.992188 220 358.007812 223.007812 356.992188 C 225 355.976562 230 353.984375 235 350.976562 C 235 340 234.023438 330 233.007812 321.992188 L 233.007812 320.976562 L 231.992188 320.976562 C 228.984375 320.976562 225 321.015625 220.976562 320 Z M 220.976562 320 "/>
</g>
</svg>
